#define font_6x1_width 80
#define font_6x1_height 48
static unsigned char font_6x1_bits[] = {
   0x00, 0x00, 0x40, 0x00, 0x00, 0x00, 0x00, 0x00, 0x00, 0x00, 0x80, 0x50,
   0xe5, 0x80, 0x81, 0x90, 0x10, 0x02, 0x00, 0x40, 0x80, 0x50, 0xf5, 0x67,
   0x81, 0x08, 0x55, 0x02, 0x00, 0x40, 0x80, 0xa8, 0x4f, 0x96, 0x40, 0x04,
   0xba, 0x0f, 0x3c, 0x20, 0x80, 0x00, 0x45, 0x48, 0x05, 0x04, 0x56, 0xc2,
   0x00, 0x20, 0x00, 0x80, 0xff, 0x75, 0x02, 0x08, 0x11, 0xc2, 0x00, 0x13,
   0x80, 0x00, 0xe5, 0xb2, 0x05, 0x90, 0x00, 0x80, 0x00, 0x13, 0x00, 0x00,
   0x40, 0x00, 0x00, 0x00, 0x00, 0x40, 0x00, 0x00, 0x00, 0x00, 0x00, 0x00,
   0x00, 0x00, 0x00, 0x00, 0x00, 0x00, 0x0c, 0x31, 0x87, 0x3c, 0xf3, 0x8c,
   0x01, 0x00, 0x01, 0x61, 0x92, 0x49, 0x48, 0x84, 0x80, 0x52, 0x32, 0x80,
   0x3c, 0x92, 0x12, 0x41, 0xa6, 0x9c, 0x43, 0x4c, 0x32, 0x46, 0x00, 0x44,
   0x12, 0x21, 0xe8, 0xa1, 0x24, 0x92, 0x03, 0x80, 0x3c, 0x22, 0x12, 0x11,
   0x88, 0xa4, 0x24, 0x12, 0x32, 0x06, 0x01, 0x01, 0x8c, 0x7b, 0x87, 0x18,
   0x23, 0x8c, 0x31, 0x04, 0x00, 0x20, 0x00, 0x00, 0x00, 0x00, 0x00, 0x00,
   0x00, 0x02, 0x00, 0x00, 0x00, 0x00, 0x00, 0x00, 0x00, 0x00, 0x00, 0x00,
   0x00, 0x00, 0x8e, 0x39, 0xe6, 0xbc, 0x67, 0xd2, 0x41, 0x29, 0xa2, 0x64,
   0x51, 0x4a, 0x29, 0x85, 0x90, 0x92, 0x40, 0x25, 0xb6, 0x94, 0x5d, 0x3a,
   0x21, 0x9d, 0x13, 0x92, 0x40, 0x23, 0xaa, 0x95, 0xdd, 0x4b, 0x21, 0x85,
   0xd0, 0x9e, 0x40, 0x23, 0xa2, 0x96, 0x41, 0x4a, 0x29, 0x85, 0x90, 0x92,
   0x48, 0x25, 0xa2, 0x94, 0x4e, 0x3a, 0xe6, 0xbc, 0x60, 0xd2, 0x31, 0xe9,
   0xa3, 0x64, 0x00, 0x00, 0x00, 0x00, 0x00, 0x00, 0x00, 0x00, 0x00, 0x00,
   0x00, 0x00, 0x00, 0x00, 0x00, 0x00, 0x00, 0x00, 0x00, 0x00, 0x8e, 0x39,
   0xf6, 0x65, 0x8c, 0x31, 0x7a, 0x27, 0x1c, 0x01, 0x52, 0x4a, 0x49, 0x64,
   0x8c, 0x4a, 0x41, 0x21, 0x90, 0x02, 0x52, 0x4a, 0x42, 0x64, 0xac, 0x84,
   0x20, 0x41, 0x50, 0x04, 0x4e, 0x3a, 0x44, 0x64, 0xac, 0x84, 0x10, 0x41,
   0x10, 0x00, 0x42, 0x29, 0x49, 0xa4, 0xda, 0x8a, 0x08, 0x81, 0x10, 0x00,
   0x82, 0x4a, 0x46, 0x18, 0x89, 0x91, 0x78, 0x87, 0x1c, 0xf8, 0x00, 0x00,
   0x00, 0x00, 0x00, 0x00, 0x00, 0x00, 0x00, 0x00, 0x00, 0x00, 0x00, 0x00,
   0x00, 0x00, 0x00, 0x00, 0x00, 0x00, 0x04, 0x08, 0x00, 0x01, 0x03, 0x82,
   0x20, 0x61, 0x00, 0x00, 0x04, 0x08, 0x00, 0x01, 0x01, 0x02, 0x00, 0x41,
   0x00, 0x00, 0x88, 0x3b, 0xce, 0xbd, 0xe7, 0xce, 0x30, 0x45, 0x96, 0x63,
   0x40, 0x4a, 0x21, 0x35, 0x91, 0x92, 0x20, 0x43, 0xaa, 0x94, 0x40, 0x4a,
   0x21, 0x05, 0xe1, 0x92, 0x20, 0x45, 0xaa, 0x94, 0x80, 0x3b, 0xce, 0x3d,
   0x81, 0xd2, 0x21, 0xe9, 0xaa, 0x64, 0x00, 0x00, 0x00, 0x00, 0x61, 0x00,
   0x38, 0x00, 0x00, 0x00, 0x00, 0x00, 0x00, 0x00, 0x00, 0x00, 0x00, 0x00,
   0x00, 0x00, 0x00, 0x00, 0x40, 0x00, 0x00, 0x00, 0x00, 0x40, 0x00, 0x00,
   0x00, 0x00, 0x40, 0x00, 0x00, 0x00, 0x00, 0x40, 0x00, 0x21, 0x8e, 0x6b,
   0xee, 0x65, 0x8c, 0x52, 0x7a, 0x48, 0x38, 0x12, 0x52, 0x1a, 0x43, 0x64,
   0xac, 0x4c, 0x22, 0x45, 0xf0, 0xff, 0x8e, 0x0b, 0x4c, 0xa4, 0xaa, 0x8c,
   0x13, 0x43, 0x28, 0x12, 0x02, 0x0a, 0xc7, 0x39, 0x51, 0x12, 0x7a, 0x47,
   0x04, 0x21, 0x02, 0x02, 0x00, 0x00, 0x00, 0xc0, 0x01, 0x00, 0x00, 0x00 };
